<svg width="24" height="24" viewBox="0 0 24 24" fill="none" xmlns="http://www.w3.org/2000/svg">
<path d="M23.1949 23.2005V23.1996H23.2005V14.9844C23.2005 10.9656 22.3353 7.86963 17.6369 7.86963C15.3781 7.86963 13.8625 9.10919 13.2437 10.2841H13.1784V8.24483H8.72363V23.1996H13.3624V15.7945C13.3624 13.8448 13.732 11.9593 16.1464 11.9593C18.5256 11.9593 18.5609 14.1845 18.5609 15.9193V23.2005H23.1949Z" fill="white"/>
<path d="M1.16992 8.24561H5.81428V23.2004H1.16992V8.24561Z" fill="white"/>
<path d="M3.49025 0.800293C2.00513 0.800293 0.800293 2.00513 0.800293 3.49025C0.800293 4.97537 2.00513 6.20541 3.49025 6.20541C4.97537 6.20541 6.18021 4.97537 6.18021 3.49025C6.17909 2.00513 4.97425 0.800293 3.49025 0.800293Z" fill="white"/>
</svg>
